<?xml version="1.0" encoding="iso-8859-1"?>
<!-- Generator: Adobe Illustrator 19.0.0, SVG Export Plug-In . SVG Version: 6.00 Build 0)  -->
<svg version="1.1" id="Capa_1" xmlns="http://www.w3.org/2000/svg" xmlns:xlink="http://www.w3.org/1999/xlink" x="0px" y="0px"
	 viewBox="0 0 511.987 511.987" style="enable-background:new 0 0 511.987 511.987;" xml:space="preserve">
<g>
	<g transform="translate(1 1)">
		<path style="fill:#A2C0F5;" d="M434.449,25.198c-4.093,91.644-49.773,176.414-124.065,230.229h-76.384
			c-74.292-53.815-119.972-138.585-124.065-230.229c-0.347-4.4,1.094-8.755,3.998-12.079c2.904-3.324,7.025-5.338,11.433-5.585
			h293.652c4.407,0.247,8.529,2.261,11.433,5.585S434.796,20.797,434.449,25.198z"/>
		<path style="fill:#FFFFFF;" d="M400.316,25.198c-4.093,91.644-49.773,176.414-124.065,230.229h-76.384
			C125.575,201.611,79.895,116.842,75.802,25.198c-0.347-4.4,1.094-8.755,3.998-12.079s7.025-5.338,11.433-5.585h293.652
			c4.407,0.247,8.529,2.261,11.433,5.585C399.222,16.443,400.663,20.797,400.316,25.198z"/>
		
			<linearGradient id="SVGID_1_" gradientUnits="userSpaceOnUse" x1="-49.6939" y1="651.5928" x2="-49.0035" y2="650.7355" gradientTransform="matrix(307.7843 0 0 -247.8933 15444.002 161495.0469)">
			<stop  offset="0" style="stop-color:#D3DFF2"/>
			<stop  offset="0.1717" style="stop-color:#D3DFF2"/>
			<stop  offset="0.2" style="stop-color:#D3DFF2"/>
			<stop  offset="0.2002" style="stop-color:#DAE2F2"/>
			<stop  offset="0.2007" style="stop-color:#EBEAF2"/>
			<stop  offset="0.2014" style="stop-color:#F6EFF2"/>
			<stop  offset="0.2023" style="stop-color:#FDF2F2"/>
			<stop  offset="0.205" style="stop-color:#FFF3F2"/>
			<stop  offset="0.2522" style="stop-color:#FFF3F2"/>
			<stop  offset="0.26" style="stop-color:#FFF3F2"/>
			<stop  offset="0.26" style="stop-color:#D3DFF2"/>
			<stop  offset="0.3974" style="stop-color:#D3DFF2"/>
			<stop  offset="0.42" style="stop-color:#D3DFF2"/>
			<stop  offset="0.4202" style="stop-color:#DAE2F2"/>
			<stop  offset="0.4207" style="stop-color:#EBEAF2"/>
			<stop  offset="0.4214" style="stop-color:#F6EFF2"/>
			<stop  offset="0.4223" style="stop-color:#FDF2F2"/>
			<stop  offset="0.425" style="stop-color:#FFF3F2"/>
			<stop  offset="0.4894" style="stop-color:#FFF3F2"/>
			<stop  offset="0.5" style="stop-color:#FFF3F2"/>
			<stop  offset="0.5" style="stop-color:#F8F0F2"/>
			<stop  offset="0.5001" style="stop-color:#E7E8F2"/>
			<stop  offset="0.5003" style="stop-color:#DCE3F2"/>
			<stop  offset="0.5005" style="stop-color:#D5E0F2"/>
			<stop  offset="0.501" style="stop-color:#D3DFF2"/>
			<stop  offset="0.7062" style="stop-color:#D3DFF2"/>
			<stop  offset="0.74" style="stop-color:#D3DFF2"/>
			<stop  offset="0.741" style="stop-color:#FFF3F2"/>
			<stop  offset="0.8346" style="stop-color:#FFF3F2"/>
			<stop  offset="0.85" style="stop-color:#FFF3F2"/>
			<stop  offset="0.851" style="stop-color:#D3DFF2"/>
		</linearGradient>
		<path style="fill:url(#SVGID_1_);" d="M409.105,25.198c-1.417,41.728-16.373,149.163-126.576,230.229h-54.55
			C117.775,174.36,102.819,66.926,101.402,25.198c-0.312-4.444,1.183-8.826,4.147-12.151s7.146-5.314,11.596-5.513h276.216
			c4.45,0.199,8.632,2.187,11.596,5.513C407.922,16.372,409.417,20.754,409.105,25.198L409.105,25.198z"/>
		<path style="fill:#A2C0F5;" d="M302.096,451.438l-8.619-108.117l-3.413-42.411c-0.61-7.626,1.375-15.233,5.632-21.589l3.499-5.291
			c3.932-5.859,3.106-13.693-1.963-18.603c-11.181-11.235-26.39-17.534-42.24-17.493c-3.637-0.01-7.267,0.333-10.837,1.024
			c11.901,2.162,22.858,7.908,31.403,16.469c5.069,4.909,5.895,12.744,1.963,18.603l-3.499,5.291
			c-4.257,6.356-6.242,13.964-5.632,21.589l3.413,42.411l8.619,108.117c1.83,23.256-13.566,44.375-36.267,49.749
			c3.548,0.861,7.187,1.291,10.837,1.28c13.187-0.005,25.773-5.518,34.717-15.208C298.654,477.569,303.144,464.583,302.096,451.438
			L302.096,451.438z"/>
		<path style="fill:#D3DFF2;" d="M272.312,343.32l-3.214-42.411c-0.586-7.579,1.273-15.145,5.305-21.589l3.296-5.291
			c1.513-2.434,2.319-5.241,2.331-8.107c-0.001-3.904-1.497-7.66-4.18-10.496c-7.88-8.467-18.231-14.23-29.578-16.469
			c-11.347,2.239-21.698,8.003-29.578,16.469c-4.769,5.062-5.529,12.702-1.848,18.603l3.295,5.291
			c4.032,6.444,5.891,14.011,5.305,21.589l-3.215,42.411l-8.118,108.117c-2.144,22.662,12.24,43.61,34.159,49.749
			c21.92-6.139,36.303-27.087,34.159-49.749L272.312,343.32z M256.478,468.334c-3.769-0.011-7.402-1.408-10.208-3.925
			c-3.734-3.348-5.867-8.126-5.867-13.141s2.133-9.793,5.867-13.141c2.806-2.517,6.439-3.914,10.208-3.925
			c9.03,0.54,16.076,8.021,16.076,17.067S265.508,467.793,256.478,468.334L256.478,468.334z"/>
		<path style="fill:#7FAAF8;" d="M434.448,25.198c-0.171,4.693-0.513,10.24-1.195,16.469h-25.344
			c0.683-6.229,1.024-11.776,1.195-16.469c0.155-4.627-1.573-9.119-4.79-12.449s-7.647-5.211-12.277-5.215h25.344
			c4.63,0.004,9.06,1.886,12.276,5.215C432.875,16.078,434.603,20.57,434.448,25.198L434.448,25.198z"/>
		<path style="fill:#A2C0F5;" d="M409.104,25.198c-0.171,4.693-0.512,10.24-1.195,16.469h-16.384
			c-9.414,0.028-17.039,7.652-17.067,17.067V75.8c0.034,7.071-4.316,13.424-10.922,15.948c-6.605,2.524-14.084,0.693-18.774-4.599
			c-2.878-3.075-4.466-7.138-4.437-11.349V58.734c0.034-7.071-4.317-13.423-10.922-15.948c-6.605-2.524-14.083-0.693-18.774,4.598
			c-2.878,3.075-4.466,7.138-4.437,11.349v51.2c0.034,7.071-4.316,13.424-10.922,15.948c-6.605,2.524-14.084,0.693-18.774-4.599
			c-2.878-3.075-4.466-7.138-4.437-11.349v-51.2c-0.027-9.414-7.652-17.039-17.067-17.067h-8.533
			c-2.936-0.026-5.825,0.74-8.363,2.219c-5.371,3.014-8.698,8.69-8.704,14.848V75.8c0.034,7.071-4.316,13.424-10.922,15.948
			c-6.605,2.524-14.084,0.693-18.774-4.599c-2.878-3.075-4.466-7.138-4.437-11.349V58.734c-0.028-9.414-7.652-17.039-17.067-17.067
			H76.731c-0.683-6.229-1.024-11.776-1.195-16.469c-0.155-4.627,1.573-9.119,4.79-12.449c3.217-3.329,7.647-5.211,12.277-5.215
			h299.435c4.63,0.004,9.06,1.886,12.277,5.215S409.259,20.57,409.104,25.198z"/>
		<g>
			<path style="fill:#FFFFFF;" d="M256.137,502.467c3.651,0.011,7.29-0.419,10.837-1.28c-22.701-5.374-38.096-26.493-36.267-49.749
				l8.619-108.117l3.413-42.411c0.61-7.626-1.375-15.233-5.632-21.589l-3.499-5.291c-3.933-5.859-3.106-13.693,1.963-18.603
				c8.545-8.561,19.502-14.307,31.403-16.469c-3.571-0.691-7.2-1.034-10.837-1.024c-15.85-0.04-31.059,6.258-42.24,17.493
				c-5.068,4.91-5.895,12.744-1.963,18.603l3.499,5.291c4.257,6.356,6.242,13.964,5.632,21.589l-3.413,42.411l-8.619,108.117
				c-1.048,13.145,3.442,26.131,12.387,35.821C230.364,496.949,242.95,502.462,256.137,502.467L256.137,502.467z"/>
			<path style="fill:#FFFFFF;" d="M75.803,25.198c0.171,4.693,0.513,10.24,1.195,16.469h25.344
				c-0.683-6.229-1.024-11.776-1.195-16.469c-0.155-4.627,1.573-9.119,4.79-12.449s7.647-5.211,12.277-5.215H92.87
				c-4.63,0.004-9.06,1.886-12.277,5.215C77.376,16.078,75.648,20.57,75.803,25.198z"/>
		</g>
	</g>
	<g>
		<circle style="fill:#438CFF;" cx="215.459" cy="371.2" r="8.533"/>
		<path style="fill:#438CFF;" d="M436.821,7.829c-4.819-5.027-11.49-7.857-18.454-7.829H93.617
			c-6.951-0.01-13.606,2.809-18.435,7.809s-7.414,11.75-7.161,18.696c0.141,3.859,0.411,8.266,0.855,13.107
			c-0.394,0.971-0.603,2.007-0.617,3.055c0.041,1.582,0.533,3.12,1.42,4.432c6.13,50.593,31.977,140.319,132.679,211.735
			c-2.631,6.935-1.77,14.712,2.314,20.904l3.546,5.363c3.176,4.749,4.656,10.43,4.2,16.125l-2.817,35.158
			c-0.377,4.697,3.124,8.81,7.821,9.188c4.697,0.377,8.81-3.124,9.188-7.821l2.821-35.175c0.758-9.522-1.717-19.021-7.025-26.963
			l-3.517-5.317c-1.657-2.48-1.278-5.795,0.896-7.837c19.999-19.987,52.411-19.989,72.413-0.004
			c1.215,1.172,1.914,2.779,1.942,4.467c-0.017,1.212-0.384,2.393-1.058,3.4l-3.454,5.221c-5.338,7.962-7.828,17.495-7.067,27.051
			l12.033,150.533c1.159,14.525-5.936,28.471-18.358,36.088c-12.422,7.617-28.068,7.615-40.489-0.004
			c-12.42-7.62-19.511-21.567-18.35-36.092l3.754-47.104c0.375-4.699-3.13-8.812-7.829-9.188c-4.699-0.375-8.812,3.13-9.188,7.829
			l-3.75,47.095c-1.674,20.928,8.542,41.024,26.438,52.002c17.896,10.978,40.439,10.98,58.337,0.004
			c17.897-10.976,28.117-31.07,26.446-51.998l-12.033-150.517c-0.459-5.728,1.036-11.443,4.242-16.212l3.521-5.325
			c2.51-3.792,3.856-8.235,3.871-12.783c-0.02-2.774-0.544-5.522-1.547-8.109C410.332,187.401,436.176,97.69,442.306,47.099
			c0.886-1.312,1.379-2.849,1.419-4.432c-0.014-1.048-0.223-2.085-0.617-3.057c0.444-4.842,0.714-9.25,0.855-13.11
			C444.238,19.561,441.657,12.813,436.821,7.829z M87.45,19.679c1.611-1.679,3.84-2.624,6.167-2.612h324.75
			c2.327-0.011,4.556,0.933,6.167,2.612c1.609,1.653,2.467,3.895,2.371,6.2c-0.092,2.519-0.24,5.281-0.461,8.254h-33.918
			c-14.132,0.015-25.585,11.468-25.6,25.6V76.8c0,4.713-3.82,8.533-8.533,8.533s-8.533-3.821-8.533-8.533V59.734
			c0-14.138-11.462-25.6-25.6-25.6c-14.138,0-25.6,11.462-25.6,25.6v51.2c0,4.713-3.82,8.533-8.533,8.533s-8.533-3.821-8.533-8.533
			v-51.2c-0.015-14.132-11.468-25.585-25.6-25.6h-8.533c-14.132,0.015-25.585,11.468-25.6,25.6V76.8
			c0,4.713-3.821,8.533-8.533,8.533s-8.533-3.821-8.533-8.533V59.734c-0.015-14.132-11.468-25.585-25.6-25.6H85.541
			c-0.221-2.972-0.369-5.732-0.461-8.25C84.983,23.577,85.84,21.333,87.45,19.679z M298.861,245.551
			c-25.012-20.199-60.73-20.201-85.744-0.004C120.91,180.549,94.55,99.798,87.445,51.2h91.747c4.71,0.006,8.527,3.823,8.533,8.533
			V76.8c0,14.138,11.462,25.6,25.6,25.6c14.139,0,25.6-11.462,25.6-25.6V59.734c0.006-4.71,3.823-8.527,8.533-8.533h8.533
			c4.71,0.006,8.527,3.823,8.533,8.533v51.2c0,14.138,11.461,25.6,25.6,25.6c14.138,0,25.6-11.462,25.6-25.6v-51.2
			c0-4.713,3.821-8.533,8.533-8.533s8.533,3.821,8.533,8.533V76.8c0,14.138,11.462,25.6,25.6,25.6s25.6-11.462,25.6-25.6V59.734
			c0.006-4.71,3.823-8.527,8.533-8.533h32.014C417.433,99.801,391.07,180.552,298.861,245.551L298.861,245.551z"/>
		<path style="fill:#438CFF;" d="M230.392,452.267c0,14.138,11.462,25.6,25.6,25.6c14.139,0,25.6-11.462,25.6-25.6
			c0-14.138-11.461-25.6-25.6-25.6C241.86,426.682,230.408,438.135,230.392,452.267z M255.992,443.734
			c4.713,0,8.533,3.82,8.533,8.533s-3.821,8.533-8.533,8.533c-4.713,0-8.533-3.82-8.533-8.533
			C247.465,447.557,251.282,443.74,255.992,443.734z"/>
		<path style="fill:#438CFF;" d="M248.909,277.846c0.341,0.425,0.683,0.85,1.025,1.279c1.636,1.558,3.799,2.441,6.058,2.475
			c0.571-0.016,1.141-0.073,1.704-0.171c0.535-0.095,1.053-0.268,1.537-0.513c0.544-0.187,1.062-0.447,1.538-0.771
			c0.425-0.337,0.85-0.679,1.279-1.021c0.341-0.429,0.683-0.854,1.021-1.279c0.324-0.476,0.583-0.993,0.771-1.538
			c0.245-0.485,0.418-1.003,0.513-1.537c0.098-0.563,0.155-1.133,0.171-1.704c-0.033-2.259-0.917-4.422-2.475-6.059
			c-0.405-0.367-0.833-0.709-1.279-1.025c-0.476-0.324-0.993-0.583-1.538-0.771c-0.484-0.246-1.002-0.417-1.537-0.508
			c-2.81-0.574-5.721,0.29-7.763,2.304c-1.56,1.635-2.444,3.799-2.475,6.059c0.014,0.572,0.071,1.141,0.171,1.704
			c0.091,0.535,0.263,1.053,0.508,1.537C248.325,276.853,248.585,277.37,248.909,277.846z"/>
	</g>
</g>
<g>
</g>
<g>
</g>
<g>
</g>
<g>
</g>
<g>
</g>
<g>
</g>
<g>
</g>
<g>
</g>
<g>
</g>
<g>
</g>
<g>
</g>
<g>
</g>
<g>
</g>
<g>
</g>
<g>
</g>
</svg>
